<?xml version="1.0" encoding="utf-8"?>
<!-- Generator: Adobe Illustrator 28.1.0, SVG Export Plug-In . SVG Version: 6.00 Build 0)  -->
<svg version="1.1" xmlns="http://www.w3.org/2000/svg" xmlns:xlink="http://www.w3.org/1999/xlink" x="0px" y="0px"
	 viewBox="0 0 512 512" style="enable-background:new 0 0 512 512;" xml:space="preserve">
<style type="text/css">
	.st0{fill:#7457C4;}
	.st1{fill:#D36363;}
	.st2{fill:#57C166;}
	.st3{fill:#D6BE56;}
	.st4{fill:#5D97ED;}
	.st5{fill:#FFFFFF;}
</style>
<g id="Layer_2">
	<circle class="st0" cx="256" cy="256" r="256"/>
	<circle class="st1" cx="822" cy="256" r="256"/>
	<circle class="st2" cx="1106" cy="-301" r="256"/>
	<circle class="st3" cx="539" cy="-301" r="256"/>
	<circle class="st4" cx="-23" cy="-301" r="256"/>
</g>
<g id="Layer_1">
	<g transform="translate(0,0)">
		<path class="st5" d="M357.1,25.4c-3,0.1-6,0.4-8.8,1l-15.7,31.9l-6.4-4.5l-10.3-7.2l-4.2,11.8L294.7,107l-1.2,3.5l0,0.1
			c-23.3,36-55,59.1-90.1,76.3C160.2,208,112,219.8,70,234.7c-22.6,8-37.1,24.9-43.4,45c-6.3,20.1-5.2,43.3,0.6,66.7
			c11.6,46.8,42,95.2,79.9,121.8c37.8,26.6,93.7,38.8,141.7,33.9c24-2.5,46.2-9.3,63-22c16.8-12.7,27.8-32.1,27.7-56.1
			c-0.2-44.6-5.4-93.8-0.1-141.6c4.4-39.5,15.6-77.7,42.6-112.2l1.3-1.1l16-13v92.4c-13.7,4.5-23.7,17.3-23.8,32.4
			c-0.5,4.7-0.3,9.9,1,15.7l0,0.1l0,0.1l22.7,119.2l68.8-22.9l-23.2-121.6c-2.3-11.3-7.8-17.4-15.1-21c-3.4-1.7-7.4-2.8-11.5-3.1
			V140.7l4.8-3.9l9.7-7.9l-10.3-7.2l-5.2-3.7L442,92.3C442,60.9,393,24.6,357.1,25.4L357.1,25.4z M325.5,76.6l75.8,53.3l-1.5,1.2
			h-0.6v0.5l-24.7,20.1c-31-4.4-49.2-18.8-60.5-42.3L325.5,76.6L325.5,76.6z M303.5,129.5c12.6,18.9,31.4,32.6,56.3,38.8
			c-24.3,35.2-35.1,73.9-39.4,112c-0.2,1.5-0.3,3.1-0.5,4.6c-6.7-4.1-16.5-8.2-28.4-11.7c-27.4-8.1-66.3-13.4-109.2-13.4
			c-42.9,0-81.8,5.2-109.2,13.4c-11.9,3.5-21.6,7.6-28.3,11.7c4.9-15.2,14.3-26.2,31.5-32.4c40.6-14.4,89.7-26.3,135.3-48.6
			C246,187.1,278.6,164,303.5,129.5L303.5,129.5z M409.7,265.9c8.6,0,15.3,6.7,15.3,15.3c0,8.6-6.7,15.4-15.3,15.4
			c-8.6,0-15.4-6.8-15.4-15.4C394.4,272.6,401.1,265.8,409.7,265.9L409.7,265.9z M41.4,307.4c0.2,0.1,0.4,0.3,0.6,0.4
			c6.7,4.7,17.5,9.6,31.2,13.6c27.4,8.1,66.2,13.4,109.2,13.4s81.8-5.2,109.2-13.4c11-3.3,20.1-7,26.7-10.8
			c-0.3,7.2-0.4,14.4-0.3,21.5c-6.3,2.8-13.3,5.3-20.9,7.6c-29.9,8.9-70.2,14.2-114.6,14.2c-44.5,0-84.7-5.3-114.6-14.2
			c-9.2-2.7-17.4-5.7-24.5-9.2C41.9,322.4,41.3,314.7,41.4,307.4L41.4,307.4z"/>
	</g>
	<g transform="translate(0,0)">
		<path class="st5" d="M923.1,25.4c-3,0.1-6,0.4-8.8,1l-15.7,31.9l-6.4-4.5l-10.3-7.2l-4.2,11.8L860.7,107l-1.2,3.5l0,0.1
			c-23.3,36-55,59.1-90.1,76.3C726.2,208,678,219.8,636,234.7c-22.6,8-37.1,24.9-43.4,45c-6.3,20.1-5.2,43.3,0.6,66.7
			c11.6,46.8,42,95.2,79.9,121.8c37.8,26.6,93.7,38.8,141.7,33.9c24-2.5,46.2-9.3,63-22c16.8-12.7,27.8-32.1,27.7-56.1
			c-0.2-44.6-5.4-93.8-0.1-141.6c4.4-39.5,15.6-77.7,42.6-112.2l1.3-1.1l16-13v92.4c-13.7,4.5-23.7,17.3-23.8,32.4
			c-0.5,4.7-0.3,9.9,1,15.7l0,0.1l0,0.1l22.7,119.2l68.8-22.9l-23.2-121.6c-2.3-11.3-7.8-17.4-15.1-21c-3.4-1.7-7.4-2.8-11.5-3.1
			V140.7l4.8-3.9l9.7-7.9l-10.3-7.2l-5.2-3.7l24.8-25.6C1008,60.9,959,24.6,923.1,25.4L923.1,25.4z M891.5,76.6l75.8,53.3l-1.5,1.2
			h-0.6v0.5l-24.7,20.1c-31-4.4-49.2-18.8-60.5-42.3L891.5,76.6L891.5,76.6z M869.5,129.5c12.6,18.9,31.4,32.6,56.3,38.8
			c-24.3,35.2-35.1,73.9-39.4,112c-0.2,1.5-0.3,3.1-0.5,4.6c-6.7-4.1-16.5-8.2-28.4-11.7c-27.4-8.1-66.3-13.4-109.2-13.4
			c-42.9,0-81.8,5.2-109.2,13.4c-11.9,3.5-21.6,7.6-28.3,11.7c4.9-15.2,14.3-26.2,31.5-32.4c40.6-14.4,89.7-26.3,135.3-48.6
			C812,187.1,844.6,164,869.5,129.5L869.5,129.5z M975.7,265.9c8.6,0,15.3,6.7,15.3,15.3c0,8.6-6.7,15.4-15.3,15.4
			c-8.6,0-15.4-6.8-15.4-15.4C960.4,272.6,967.1,265.8,975.7,265.9L975.7,265.9z M607.4,307.4c0.2,0.1,0.4,0.3,0.6,0.4
			c6.7,4.7,17.5,9.6,31.2,13.6c27.4,8.1,66.2,13.4,109.2,13.4s81.8-5.2,109.2-13.4c11-3.3,20.1-7,26.7-10.8
			c-0.3,7.2-0.4,14.4-0.3,21.5c-6.3,2.8-13.3,5.3-20.9,7.6c-29.9,8.9-70.2,14.2-114.6,14.2c-44.5,0-84.7-5.3-114.6-14.2
			c-9.2-2.7-17.4-5.7-24.5-9.2C607.9,322.4,607.3,314.7,607.4,307.4L607.4,307.4z"/>
	</g>
	<g transform="translate(0,0)">
		<path class="st5" d="M1207.1-531.6c-3,0.1-6,0.4-8.8,1l-15.7,31.9l-6.4-4.5l-10.3-7.2l-4.2,11.8l-17.1,48.4l-1.2,3.5l0,0.1
			c-23.3,36-55,59.1-90.1,76.3C1010.2-349,962-337.2,920-322.3c-22.6,8-37.1,24.9-43.4,45c-6.3,20.1-5.2,43.3,0.6,66.7
			c11.6,46.8,42,95.2,79.9,121.8c37.8,26.6,93.7,38.8,141.7,33.9c24-2.5,46.2-9.3,63-22c16.8-12.7,27.8-32.1,27.7-56.1
			c-0.2-44.6-5.4-93.8-0.1-141.6c4.4-39.5,15.6-77.7,42.6-112.2l1.3-1.1l16-13v92.4c-13.7,4.5-23.7,17.3-23.8,32.4
			c-0.5,4.7-0.3,9.9,1,15.7l0,0.1l0,0.1l22.7,119.2l68.8-22.9l-23.2-121.6c-2.3-11.3-7.8-17.4-15.1-21c-3.4-1.7-7.4-2.8-11.5-3.1
			v-106.8l4.8-3.9l9.7-7.9l-10.3-7.2l-5.2-3.7l24.8-25.6C1292-496.1,1243-532.4,1207.1-531.6L1207.1-531.6z M1175.5-480.4l75.8,53.3
			l-1.5,1.2h-0.6v0.5l-24.7,20.1c-31-4.4-49.2-18.8-60.5-42.3L1175.5-480.4L1175.5-480.4z M1153.5-427.5
			c12.6,18.9,31.4,32.6,56.3,38.8c-24.3,35.2-35.1,73.9-39.4,112c-0.2,1.5-0.3,3.1-0.5,4.6c-6.7-4.1-16.5-8.2-28.4-11.7
			c-27.4-8.1-66.3-13.4-109.2-13.4c-42.9,0-81.8,5.2-109.2,13.4c-11.9,3.5-21.6,7.6-28.3,11.7c4.9-15.2,14.3-26.2,31.5-32.4
			c40.6-14.4,89.7-26.3,135.3-48.6C1096-369.9,1128.6-393,1153.5-427.5L1153.5-427.5z M1259.7-291.1c8.6,0,15.3,6.7,15.3,15.3
			c0,8.6-6.7,15.4-15.3,15.4c-8.6,0-15.4-6.8-15.4-15.4C1244.4-284.4,1251.1-291.2,1259.7-291.1L1259.7-291.1z M891.4-249.6
			c0.2,0.1,0.4,0.3,0.6,0.4c6.7,4.7,17.5,9.6,31.2,13.6c27.4,8.1,66.2,13.4,109.2,13.4c42.9,0,81.8-5.2,109.2-13.4
			c11-3.3,20.1-7,26.7-10.8c-0.3,7.2-0.4,14.4-0.3,21.5c-6.3,2.8-13.3,5.3-20.9,7.6c-29.9,8.9-70.2,14.2-114.6,14.2
			c-44.5,0-84.7-5.3-114.6-14.2c-9.2-2.7-17.4-5.7-24.5-9.2C891.9-234.6,891.3-242.3,891.4-249.6L891.4-249.6z"/>
	</g>
	<g transform="translate(0,0)">
		<path class="st5" d="M640.1-531.6c-3,0.1-6,0.4-8.8,1l-15.7,31.9l-6.4-4.5l-10.3-7.2l-4.2,11.8L577.7-450l-1.2,3.5l0,0.1
			c-23.3,36-55,59.1-90.1,76.3C443.2-349,395-337.2,353-322.3c-22.6,8-37.1,24.9-43.4,45c-6.3,20.1-5.2,43.3,0.6,66.7
			c11.6,46.8,42,95.2,79.9,121.8c37.8,26.6,93.7,38.8,141.7,33.9c24-2.5,46.2-9.3,63-22c16.8-12.7,27.8-32.1,27.7-56.1
			c-0.2-44.6-5.4-93.8-0.1-141.6c4.4-39.5,15.6-77.7,42.6-112.2l1.3-1.1l16-13v92.4c-13.7,4.5-23.7,17.3-23.8,32.4
			c-0.5,4.7-0.3,9.9,1,15.7l0,0.1l0,0.1l22.7,119.2l68.8-22.9l-23.2-121.6c-2.3-11.3-7.8-17.4-15.1-21c-3.4-1.7-7.4-2.8-11.5-3.1
			v-106.8l4.8-3.9l9.7-7.9l-10.3-7.2l-5.2-3.7l24.8-25.6C725-496.1,676-532.4,640.1-531.6L640.1-531.6z M608.5-480.4l75.8,53.3
			l-1.5,1.2h-0.6v0.5l-24.7,20.1c-31-4.4-49.2-18.8-60.5-42.3L608.5-480.4L608.5-480.4z M586.5-427.5c12.6,18.9,31.4,32.6,56.3,38.8
			c-24.3,35.2-35.1,73.9-39.4,112c-0.2,1.5-0.3,3.1-0.5,4.6c-6.7-4.1-16.5-8.2-28.4-11.7c-27.4-8.1-66.3-13.4-109.2-13.4
			c-42.9,0-81.8,5.2-109.2,13.4c-11.9,3.5-21.6,7.6-28.3,11.7c4.9-15.2,14.3-26.2,31.5-32.4c40.6-14.4,89.7-26.3,135.3-48.6
			C529-369.9,561.6-393,586.5-427.5L586.5-427.5z M692.7-291.1c8.6,0,15.3,6.7,15.3,15.3c0,8.6-6.7,15.4-15.3,15.4
			c-8.6,0-15.4-6.8-15.4-15.4C677.4-284.4,684.1-291.2,692.7-291.1L692.7-291.1z M324.4-249.6c0.2,0.1,0.4,0.3,0.6,0.4
			c6.7,4.7,17.5,9.6,31.2,13.6c27.4,8.1,66.2,13.4,109.2,13.4s81.8-5.2,109.2-13.4c11-3.3,20.1-7,26.7-10.8
			c-0.3,7.2-0.4,14.4-0.3,21.5c-6.3,2.8-13.3,5.3-20.9,7.6c-29.9,8.9-70.2,14.2-114.6,14.2c-44.5,0-84.7-5.3-114.6-14.2
			c-9.2-2.7-17.4-5.7-24.5-9.2C324.9-234.6,324.3-242.3,324.4-249.6L324.4-249.6z"/>
	</g>
	<g transform="translate(0,0)">
		<path class="st5" d="M78.1-531.6c-3,0.1-6,0.4-8.8,1l-15.7,31.9l-6.4-4.5l-10.3-7.2l-4.2,11.8L15.7-450l-1.2,3.5l0,0.1
			c-23.3,36-55,59.1-90.1,76.3C-118.8-349-167-337.2-209-322.3c-22.6,8-37.1,24.9-43.4,45c-6.3,20.1-5.2,43.3,0.6,66.7
			c11.6,46.8,42,95.2,79.9,121.8C-134.1-62.2-78.2-50-30.2-54.9c24-2.5,46.2-9.3,63-22c16.8-12.7,27.8-32.1,27.7-56.1
			c-0.2-44.6-5.4-93.8-0.1-141.6c4.4-39.5,15.6-77.7,42.6-112.2l1.3-1.1l16-13v92.4c-13.7,4.5-23.7,17.3-23.8,32.4
			c-0.5,4.7-0.3,9.9,1,15.7l0,0.1l0,0.1l22.7,119.2l68.8-22.9l-23.2-121.6c-2.3-11.3-7.8-17.4-15.1-21c-3.4-1.7-7.4-2.8-11.5-3.1
			v-106.8l4.8-3.9l9.7-7.9l-10.3-7.2l-5.2-3.7l24.8-25.6C163-496.1,114-532.4,78.1-531.6L78.1-531.6z M46.5-480.4l75.8,53.3
			l-1.5,1.2h-0.6v0.5l-24.7,20.1c-31-4.4-49.2-18.8-60.5-42.3L46.5-480.4L46.5-480.4z M24.5-427.5c12.6,18.9,31.4,32.6,56.3,38.8
			c-24.3,35.2-35.1,73.9-39.4,112c-0.2,1.5-0.3,3.1-0.5,4.6c-6.7-4.1-16.5-8.2-28.4-11.7c-27.4-8.1-66.3-13.4-109.2-13.4
			c-42.9,0-81.8,5.2-109.2,13.4c-11.9,3.5-21.6,7.6-28.3,11.7c4.9-15.2,14.3-26.2,31.5-32.4c40.6-14.4,89.7-26.3,135.3-48.6
			C-33-369.9-0.4-393,24.5-427.5L24.5-427.5z M130.7-291.1c8.6,0,15.3,6.7,15.3,15.3c0,8.6-6.7,15.4-15.3,15.4s-15.4-6.8-15.4-15.4
			C115.4-284.4,122.1-291.2,130.7-291.1L130.7-291.1z M-237.6-249.6c0.2,0.1,0.4,0.3,0.6,0.4c6.7,4.7,17.5,9.6,31.2,13.6
			c27.4,8.1,66.2,13.4,109.2,13.4s81.8-5.2,109.2-13.4c11-3.3,20.1-7,26.7-10.8c-0.3,7.2-0.4,14.4-0.3,21.5
			c-6.3,2.8-13.3,5.3-20.9,7.6c-29.9,8.9-70.2,14.2-114.6,14.2c-44.5,0-84.7-5.3-114.6-14.2c-9.2-2.7-17.4-5.7-24.5-9.2
			C-237.1-234.6-237.7-242.3-237.6-249.6L-237.6-249.6z"/>
	</g>
</g>
</svg>
